<svg width="32" height="33" viewBox="0 0 32 33" fill="none" xmlns="http://www.w3.org/2000/svg">
<path d="M16 0.5C12.8355 0.5 9.74207 1.43838 7.11088 3.19649C4.4797 4.95459 2.42894 7.45345 1.21793 10.3771C0.0069325 13.3007 -0.309921 16.5177 0.307443 19.6214C0.924806 22.7251 2.44866 25.5761 4.6863 27.8137C6.92394 30.0513 9.77487 31.5752 12.8786 32.1926C15.9823 32.8099 19.1993 32.4931 22.1229 31.2821C25.0466 30.0711 27.5454 28.0203 29.3035 25.3891C31.0616 22.7579 32 19.6645 32 16.5C31.995 12.2581 30.3077 8.19134 27.3082 5.19185C24.3087 2.19235 20.2419 0.505028 16 0.5ZM16 30.5C13.2311 30.5 10.5243 29.6789 8.22202 28.1406C5.91974 26.6022 4.12532 24.4157 3.06569 21.8576C2.00607 19.2994 1.72882 16.4845 2.26901 13.7687C2.80921 11.053 4.14258 8.55844 6.10051 6.6005C8.05845 4.64257 10.553 3.3092 13.2687 2.76901C15.9845 2.22881 18.7994 2.50606 21.3576 3.56569C23.9157 4.62531 26.1022 6.41973 27.6406 8.72202C29.1789 11.0243 30 13.7311 30 16.5C29.996 20.2118 28.5198 23.7705 25.8951 26.3951C23.2705 29.0198 19.7118 30.496 16 30.5Z" fill="#F38A20"/>
<path d="M16 6.5C14.4092 6.50159 12.884 7.13424 11.7591 8.25911C10.6342 9.38399 10.0016 10.9092 10 12.5H12C12 11.4391 12.4214 10.4217 13.1716 9.67157C13.9217 8.92143 14.9391 8.5 16 8.5C16.9608 8.49906 17.8898 8.84396 18.6172 9.47164C19.3446 10.0993 19.8217 10.9678 19.9614 11.9184C20.1011 12.869 19.894 13.838 19.378 14.6485C18.8619 15.4589 18.0714 16.0565 17.151 16.332C16.5302 16.5126 15.9849 16.8899 15.597 17.4071C15.2091 17.9243 14.9996 18.5535 15 19.2V22.5H17V19.2C17.0019 18.9841 17.0736 18.7745 17.2045 18.6027C17.3354 18.431 17.5183 18.3062 17.726 18.247C19.1058 17.8331 20.2906 16.9366 21.064 15.7213C21.8374 14.506 22.1477 13.053 21.9383 11.6278C21.7289 10.2026 21.0137 8.90025 19.9234 7.95877C18.8331 7.0173 17.4405 6.49951 16 6.5Z" fill="#F38A20"/>
<path d="M17 24.5H15V26.5H17V24.5Z" fill="#F38A20"/>
</svg>
